<svg width="24" height="26" viewBox="0 0 24 26" fill="none" xmlns="http://www.w3.org/2000/svg">
<path d="M14.394 9.65492C9.19669 10.4695 6.50123 8.17384 8.36528 3.10485C8.50574 2.3458 8.39945 1.76078 8.11851 1.39421C8.11471 1.3868 8.10712 1.3794 8.10332 1.3757C7.68951 0.853616 6.91125 0.783265 5.96214 1.28683C2.72759 3.38996 0.324455 7.69249 0.0776876 13.4317C0.0169449 16.0902 0.730672 18.3637 1.92655 20.2113C2.06701 20.4298 2.21507 20.6408 2.36693 20.8445C5.08137 24.4805 9.73199 26.2541 13.6575 25.8172C19.8001 25.1581 23.4219 22.0775 23.8091 17.9267C23.9268 16.6456 23.737 15.2608 23.2169 13.8167C21.6983 10.5621 18.7599 9.081 14.394 9.65492Z" fill="#603dd6"/>
<path d="M10.6166 6.7003C11.0418 7.15943 11.6454 7.48157 12.3819 7.63708C14.3636 7.88516 15.7152 7.35197 17.8222 7.49267C18.9725 7.56673 19.5951 7.73705 20.6657 8.30727C21.7932 8.97745 22.283 9.74021 23.1182 9.26256C23.2776 9.14037 23.4143 9.02189 23.5244 8.89599C23.9762 8.38873 24.0369 7.76667 23.756 6.48924C23.6877 6.27079 23.6231 6.05973 23.5548 5.85608C22.7499 3.46785 21.8388 2.3052 19.6407 0.942613C18.2664 0.128021 16.1594 -0.205222 14.5914 0.128021C12.7274 0.653803 11.5011 0.912991 10.3281 3.14201C9.68646 4.57495 9.84591 5.80425 10.5596 6.62995C10.5748 6.65587 10.5976 6.67808 10.6166 6.7003Z" fill="#603dd6"/>
</svg>
